HIERARCHY
ROOT Hips
{
	OFFSET 0.000000 0.000000 0.000000
	CHANNELS 6 Xposition Yposition Zposition Xrotation Yrotation Zrotation
	JOINT LeftUpLeg_virtual
	{
		OFFSET 0.000000 0.000000 0.000000
		CHANNELS 3 Xrotation Yrotation Zrotation
		JOINT LeftUpLeg
		{
			OFFSET 10.205400 -3.823500 0.155100
			CHANNELS 3 Xrotation Yrotation Zrotation
			JOINT LeftLeg
			{
				OFFSET 0.708757 -12.982077 0.567790
				CHANNELS 3 Xrotation Yrotation Zrotation
				JOINT LeftFoot
				{
					OFFSET -0.708756 -10.717838 -2.184338
					CHANNELS 3 Xrotation Yrotation Zrotation
					JOINT LeftToeBase
					{
						OFFSET 0.108149 -7.191104 7.560241
						CHANNELS 3 Xrotation Yrotation Zrotation
						JOINT LeftToe_End
						{
							OFFSET 0.070230 0.081724 4.490308
							CHANNELS 3 Xrotation Yrotation Zrotation
							End Site
							{
								OFFSET 0 0 0
							}
						}
					}
				}
			}
		}
	}
	JOINT RightUpLeg_virtual
	{
		OFFSET 0.000000 0.000000 0.000000
		CHANNELS 3 Xrotation Yrotation Zrotation
		JOINT RightUpLeg
		{
			OFFSET -10.205400 -3.823500 0.005500
			CHANNELS 3 Xrotation Yrotation Zrotation
			JOINT RightLeg
			{
				OFFSET -0.708756 -12.982134 0.610632
				CHANNELS 3 Xrotation Yrotation Zrotation
				JOINT RightFoot
				{
					OFFSET 0.708754 -10.717769 -1.945823
					CHANNELS 3 Xrotation Yrotation Zrotation
					JOINT RightToeBase
					{
						OFFSET -0.108140 -7.191069 7.372968
						CHANNELS 3 Xrotation Yrotation Zrotation
						JOINT RightToe_End
						{
							OFFSET -0.070227 0.081735 4.479403
							CHANNELS 3 Xrotation Yrotation Zrotation
							End Site
							{
								OFFSET 0 0 0
							}
						}
					}
				}
			}
		}
	}
	JOINT Spine_virtual
	{
		OFFSET 0.000000 0.000000 0.000000
		CHANNELS 3 Xrotation Yrotation Zrotation
		JOINT Spine
		{
			OFFSET 0.000000 6.876099 0.125700
			CHANNELS 3 Xrotation Yrotation Zrotation
			JOINT Spine1
			{
				OFFSET 0.000000 5.730043 0.104720
				CHANNELS 3 Xrotation Yrotation Zrotation
				JOINT Spine1_split
				{
					OFFSET 0.000000 5.730043 0.104720
					CHANNELS 3 Xrotation Yrotation Zrotation
					JOINT Spine2
					{
						OFFSET 0.000000 5.730043 0.104720
						CHANNELS 3 Xrotation Yrotation Zrotation
						JOINT Neck_virtual
						{
							OFFSET 0.000000 0.000000 0.000000
							CHANNELS 3 Xrotation Yrotation Zrotation
							JOINT Neck
							{
								OFFSET 0.000000 10.314075 0.188496
								CHANNELS 3 Xrotation Yrotation Zrotation
								JOINT Head
								{
									OFFSET 0.000000 7.643700 -2.377400
									CHANNELS 3 Xrotation Yrotation Zrotation
									JOINT HeadTop_End
									{
										OFFSET 0.000000 43.788605 -13.619600
										CHANNELS 3 Xrotation Yrotation Zrotation
										End Site
										{
											OFFSET 0 0 0
										}
									}
								}
							}
						}
						JOINT LeftShoulder_virtual
						{
							OFFSET 0.000000 0.000000 0.000000
							CHANNELS 3 Xrotation Yrotation Zrotation
							JOINT LeftShoulder
							{
								OFFSET 2.196100 4.412489 0.087492
								CHANNELS 3 Xrotation Yrotation Zrotation
								JOINT LeftShoulder_split
								{
									OFFSET 2.196100 4.412489 0.087492
									CHANNELS 3 Xrotation Yrotation Zrotation
									JOINT LeftArm
									{
										OFFSET 8.771219 -2.981674 -0.026999
										CHANNELS 3 Xrotation Yrotation Zrotation
										JOINT LeftForeArm
										{
											OFFSET 8.512804 0.000000 -0.000000
											CHANNELS 3 Xrotation Yrotation Zrotation
											JOINT LeftHand
											{
												OFFSET 18.484802 0.000000 -0.000000
												CHANNELS 3 Xrotation Yrotation Zrotation
												End Site
												{
													OFFSET 0 0 0
												}
											}
										}
									}
								}
							}
						}
						JOINT RightShoulder_virtual
						{
							OFFSET 0.000000 0.000000 0.000000
							CHANNELS 3 Xrotation Yrotation Zrotation
							JOINT RightShoulder
							{
								OFFSET -2.196100 4.412496 0.070690
								CHANNELS 3 Xrotation Yrotation Zrotation
								JOINT RightShoulder_split
								{
									OFFSET -2.196100 4.412496 0.070690
									CHANNELS 3 Xrotation Yrotation Zrotation
									JOINT RightArm
									{
										OFFSET -8.771282 -2.981682 -0.094208
										CHANNELS 3 Xrotation Yrotation Zrotation
										JOINT RightForeArm
										{
											OFFSET -8.494598 0.000000 0.000000
											CHANNELS 3 Xrotation Yrotation Zrotation
											JOINT RightHand
											{
												OFFSET -18.483803 0.000000 0.000001
												CHANNELS 3 Xrotation Yrotation Zrotation
												End Site
												{
													OFFSET 0 0 0
												}
											}
										}
									}
								}
							}
						}
					}
				}
			}
		}
	}
}
MOTION
Frames: 10
Frame Time: 0.03333333
-0.168068 44.422112 7.362901 0.000000 0.000000 0.000000 -88.371467 -7.541880 -0.620213 -6.255527 20.323638 15.784618 7.908046 -0.867006 3.976617 7.151492 29.959115 -21.989774 -4.725547 0.116229 1.898117 0.000000 0.000000 0.000000 -90.357372 -5.060555 0.548874 -7.711900 -19.000709 -19.558674 15.254778 -1.034311 -5.472214 14.237752 -34.348154 30.236763 -11.155475 1.406426 -3.905439 0.000000 0.000000 0.000000 -87.494436 -7.512867 -2.006049 1.613537 -0.587400 -0.602689 -1.211365 0.323850 -0.251360 0.612117 0.812893 -0.346588 0.000000 0.000000 0.000000 -1.100915 0.525397 -0.329601 -5.091692 3.979684 -8.412840 3.737890 8.010446 -11.195177 0.000000 0.000000 0.000000 -0.247438 0.511750 -0.089786 0.349883 -6.119683 -0.569583 -0.130482 1.436819 -2.966920 45.000636 -42.006725 -31.543661 4.637755 -86.263670 4.016442 0.000000 0.000000 0.000000 -0.171814 0.729567 -0.653561 0.340824 0.314229 2.300112 7.705402 7.673525 -0.803840 -4.542632 1.058170 81.332171 -179.379195 54.436806 -179.965431 0.000000 0.000000 0.000000 
-0.157335 44.423325 7.364568 0.000000 0.000000 0.000000 -88.376241 -7.530891 -0.606010 -6.259084 20.300022 15.785452 7.895262 -0.885037 3.959044 7.151784 29.947702 -21.979735 -4.722656 0.114666 1.900257 0.000000 0.000000 0.000000 -90.349640 -5.056308 0.557755 -7.722074 -18.994469 -19.575445 15.241683 -1.031927 -5.478159 14.250003 -34.344018 30.240768 -11.169440 1.397605 -3.900349 0.000000 0.000000 0.000000 -87.489403 -7.500233 -2.006643 1.618985 -0.583448 -0.586689 -1.207984 0.325972 -0.249191 0.632739 0.798255 -0.331354 0.000000 0.000000 0.000000 -1.104999 0.530990 -0.328193 -5.036187 4.039429 -8.454955 3.818194 8.115617 -11.192360 0.000000 0.000000 0.000000 -0.241022 0.512695 -0.100758 0.349463 -6.127644 -0.578811 -0.111988 1.492483 -2.929738 44.978373 -42.020748 -31.557933 4.664623 -86.263568 4.044157 0.000000 0.000000 0.000000 -0.158505 0.742863 -0.643319 0.351919 0.314689 2.308389 7.700508 7.658404 -0.840638 -4.507326 1.108519 81.281464 -179.406052 54.448820 -179.931211 0.000000 0.000000 0.000000 
-0.146719 44.424984 7.365449 0.000000 0.000000 0.000000 -88.376958 -7.522194 -0.586668 -6.254824 20.275169 15.778321 7.873211 -0.911580 3.941859 7.150861 29.933389 -21.959511 -4.711284 0.111661 1.897352 0.000000 0.000000 0.000000 -90.339121 -5.055707 0.569549 -7.742460 -19.002778 -19.602955 15.238628 -1.027230 -5.489896 14.237286 -34.349076 30.229389 -11.197465 1.391360 -3.892737 0.000000 0.000000 0.000000 -87.483617 -7.500175 -2.014034 1.627571 -0.584688 -0.559973 -1.207451 0.327697 -0.245018 0.644058 0.780908 -0.302816 0.000000 0.000000 0.000000 -1.111451 0.535640 -0.326335 -5.046614 4.079275 -8.443684 4.183750 8.237385 -11.376793 0.000000 0.000000 0.000000 -0.235337 0.509630 -0.108726 0.344231 -6.122508 -0.601286 -0.079755 1.552365 -2.868219 44.932000 -42.023869 -31.615955 4.551977 -86.262407 3.935573 0.000000 0.000000 0.000000 -0.146964 0.753329 -0.632729 0.365001 0.308033 2.344882 7.682322 7.647519 -0.871451 -4.497941 1.218947 81.194167 -179.427389 54.498947 -179.891200 0.000000 0.000000 0.000000 
-0.136773 44.426704 7.363968 0.000000 0.000000 0.000000 -88.373523 -7.517857 -0.565436 -6.246459 20.249728 15.766954 7.848902 -0.947701 3.927719 7.146418 29.916536 -21.936109 -4.693659 0.107677 1.889662 0.000000 0.000000 0.000000 -90.326165 -5.056208 0.584982 -7.775364 -19.025463 -19.638037 15.246787 -1.016941 -5.505010 14.209411 -34.357105 30.211627 -11.241061 1.387626 -3.882380 0.000000 0.000000 0.000000 -87.479280 -7.511402 -2.028770 1.636640 -0.591497 -0.526902 -1.210950 0.328779 -0.239307 0.643413 0.761550 -0.275345 0.000000 0.000000 0.000000 -1.121770 0.539943 -0.322425 -5.119528 4.099687 -8.394111 4.820389 8.363850 -11.740147 0.000000 0.000000 0.000000 -0.229625 0.502705 -0.113643 0.336572 -6.109826 -0.642536 -0.038673 1.605500 -2.782969 44.872366 -42.017186 -31.695124 4.297060 -86.241042 3.689841 0.000000 0.000000 0.000000 -0.137504 0.759760 -0.623537 0.379842 0.286886 2.398754 7.657409 7.651227 -0.898962 -4.506827 1.369835 81.084994 -179.432539 54.546874 -179.859289 0.000000 0.000000 0.000000 
-0.128355 44.428162 7.359947 0.000000 0.000000 0.000000 -88.371112 -7.521257 -0.547310 -6.237585 20.226386 15.754916 7.826394 -0.994609 3.917422 7.140347 29.894498 -21.919260 -4.674478 0.103166 1.878370 0.000000 0.000000 0.000000 -90.309806 -5.051893 0.608595 -7.813461 -19.063000 -19.675302 15.259457 -0.996045 -5.522875 14.173454 -34.363057 30.192711 -11.310039 1.387110 -3.870544 0.000000 0.000000 0.000000 -87.479997 -7.534544 -2.051358 1.643583 -0.604057 -0.492531 -1.216642 0.329451 -0.233298 0.646784 0.747573 -0.253515 0.000000 0.000000 0.000000 -1.133971 0.543446 -0.316520 -5.245015 4.107491 -8.326836 5.676076 8.485020 -12.261179 0.000000 0.000000 0.000000 -0.222196 0.493385 -0.116613 0.327291 -6.087917 -0.708754 -0.005570 1.640644 -2.683166 44.807865 -42.006872 -31.770799 3.927743 -86.190854 3.335392 0.000000 0.000000 0.000000 -0.129103 0.762968 -0.617112 0.393726 0.245906 2.455913 7.632068 7.669950 -0.919581 -4.525979 1.533550 80.976838 -179.416857 54.562768 -179.844509 0.000000 0.000000 0.000000 
-0.121832 44.428596 7.356842 0.000000 0.000000 0.000000 -88.374602 -7.532804 -0.535181 -6.229872 20.209326 15.745249 7.807701 -1.051130 3.909835 7.133827 29.867000 -21.913091 -4.657188 0.098255 1.864820 0.000000 0.000000 0.000000 -90.293926 -5.040690 0.639995 -7.851696 -19.114593 -19.709052 15.272539 -0.966978 -5.542178 14.135061 -34.367640 30.170178 -11.402786 1.389366 -3.857431 0.000000 0.000000 0.000000 -87.488262 -7.566138 -2.077466 1.645429 -0.620055 -0.463017 -1.222087 0.330322 -0.227193 0.650894 0.746090 -0.246640 0.000000 0.000000 0.000000 -1.146399 0.546463 -0.309141 -5.407240 4.112776 -8.263184 6.683495 8.607604 -12.903550 0.000000 0.000000 0.000000 -0.214028 0.483842 -0.117693 0.317893 -6.055559 -0.796750 0.008694 1.646226 -2.590423 44.739344 -42.003362 -31.823675 3.546168 -86.123331 2.971975 0.000000 0.000000 0.000000 -0.122200 0.763911 -0.614069 0.402003 0.181455 2.501243 7.618688 7.706187 -0.937231 -4.543846 1.685015 80.884705 -179.384141 54.542947 -179.848347 0.000000 0.000000 0.000000 
-0.117550 44.427795 7.355315 0.000000 0.000000 0.000000 -88.383399 -7.549511 -0.527937 -6.224122 20.206520 15.740285 7.792851 -1.110746 3.903315 7.123438 29.837572 -21.912384 -4.641566 0.093453 1.849389 0.000000 0.000000 0.000000 -90.283483 -5.026920 0.672713 -7.892856 -19.178661 -19.737432 15.285888 -0.935940 -5.559599 14.097014 -34.376267 30.138036 -11.503166 1.393507 -3.842343 0.000000 0.000000 0.000000 -87.501649 -7.603826 -2.103799 1.643708 -0.636267 -0.442344 -1.226116 0.331565 -0.222224 0.656318 0.769040 -0.242794 0.000000 0.000000 0.000000 -1.160566 0.549311 -0.300791 -5.594797 4.122514 -8.218760 7.745182 8.730852 -13.607855 0.000000 0.000000 0.000000 -0.206124 0.476495 -0.117002 0.309993 -6.007863 -0.902829 0.013085 1.640112 -2.506026 44.675615 -42.020055 -31.838275 3.211575 -86.057371 2.655094 0.000000 0.000000 0.000000 -0.114085 0.763944 -0.614081 0.402973 0.097650 2.527115 7.621182 7.750293 -0.963474 -4.555138 1.813013 80.826232 -179.345482 54.513017 -179.865464 0.000000 0.000000 0.000000 
-0.114910 44.427269 7.354527 0.000000 0.000000 0.000000 -88.393160 -7.565890 -0.523443 -6.223029 20.224730 15.741556 7.779075 -1.167913 3.897639 7.105553 29.810115 -21.910538 -4.626633 0.089741 1.832237 0.000000 0.000000 0.000000 -90.277752 -5.014262 0.701601 -7.937966 -19.252695 -19.759351 15.299870 -0.905892 -5.572777 14.062155 -34.391901 30.097860 -11.598226 1.398157 -3.824827 0.000000 0.000000 0.000000 -87.518226 -7.643645 -2.124889 1.642393 -0.650465 -0.431725 -1.226894 0.333469 -0.218305 0.650388 0.796421 -0.235710 0.000000 0.000000 0.000000 -1.175894 0.552407 -0.293160 -5.800609 4.140642 -8.196737 8.751812 8.851998 -14.308855 0.000000 0.000000 0.000000 -0.201273 0.473100 -0.113831 0.304290 -5.938113 -1.012402 0.010668 1.620750 -2.434370 44.637622 -42.055158 -31.801805 2.933970 -86.005906 2.391450 0.000000 0.000000 0.000000 -0.103236 0.764603 -0.615726 0.394114 0.000550 2.531368 7.637032 7.797064 -0.980350 -4.564355 1.907794 80.808071 -179.312396 54.510329 -179.889561 0.000000 0.000000 0.000000 
-0.113083 44.427231 7.354338 0.000000 0.000000 0.000000 -88.400666 -7.578798 -0.520669 -6.228957 20.264176 15.748355 7.766240 -1.218309 3.892448 7.082169 29.787941 -21.906911 -4.612719 0.087513 1.814862 0.000000 0.000000 0.000000 -90.273579 -5.005150 0.724949 -7.985005 -19.330328 -19.774074 15.314995 -0.877609 -5.579672 14.031416 -34.414875 30.053379 -11.685085 1.402285 -3.805664 0.000000 0.000000 0.000000 -87.533041 -7.680555 -2.137958 1.642744 -0.660870 -0.431229 -1.224193 0.334787 -0.215605 0.640256 0.833312 -0.230852 0.000000 0.000000 0.000000 -1.192191 0.554996 -0.286546 -6.020641 4.155176 -8.187197 9.618650 8.954772 -14.938401 0.000000 0.000000 0.000000 -0.203220 0.474126 -0.108000 0.302409 -5.855147 -1.107342 0.002082 1.587910 -2.374326 44.632103 -42.099961 -31.719317 2.710016 -85.971673 2.178404 0.000000 0.000000 0.000000 -0.093393 0.765608 -0.618915 0.376274 -0.106661 2.512783 7.664025 7.843397 -0.968370 -4.576023 1.969242 80.823910 -179.289269 54.549036 -179.917838 0.000000 0.000000 0.000000 
-0.112066 44.427124 7.354977 0.000000 0.000000 0.000000 -88.405618 -7.586758 -0.517246 -6.242095 20.318517 15.758575 7.757261 -1.261182 3.887549 7.058782 29.772460 -21.905117 -4.602320 0.086567 1.799283 0.000000 0.000000 0.000000 -90.266810 -4.996726 0.746403 -8.025505 -19.404024 -19.780810 15.327155 -0.850648 -5.581707 14.002374 -34.442479 30.008262 -11.763908 1.406080 -3.787020 0.000000 0.000000 0.000000 -87.543593 -7.706717 -2.139702 1.647402 -0.668322 -0.438765 -1.219753 0.334637 -0.214913 0.634596 0.889574 -0.224854 0.000000 0.000000 0.000000 -1.206621 0.556494 -0.282894 -6.248681 4.151844 -8.173077 10.272745 9.020195 -15.445283 0.000000 0.000000 0.000000 -0.211744 0.477593 -0.100412 0.306134 -5.767707 -1.182793 -0.010501 1.539178 -2.329083 44.657180 -42.141331 -31.614815 2.513620 -85.947105 1.992525 0.000000 0.000000 0.000000 -0.087170 0.765704 -0.624384 0.355645 -0.220083 2.478288 7.691999 7.887590 -0.942176 -4.596232 2.007428 80.869781 -179.272795 54.613141 -179.949776 0.000000 0.000000 0.000000 
